# xmcd
# 
# Track frame offsets:
#     150
#     14647
#     27607
#     42812
#     59182
#     68655
#     84952
#     102655
#     110342
#     125052
#     139430
#     152137
#     161267
#     175787
#     195350
#     205127
#     218862
#     231282
#     249675
#     266267
# 
# Disc length: 3705
# 
# Revision: 2
# Processed by: cddbd v1.5.2PL0 Copyright (c) Steve Scherf et al.
# Submitted via: fre:ac v1.0.17
# 
DISCID=240e7714
DTITLE=Elvis Presley - Elvis Country
DYEAR=2006
DGENRE=Country
TTITLE0=For The Good Times
TTITLE1=Take Good Care Of Her
TTITLE2=She Wears My Ring
TTITLE3=Always On My Mind
TTITLE4=Snowbird
TTITLE5=Green, Green Grass Of Home
TTITLE6=Tomorrow Never Comes
TTITLE7=A Hundred Years From Now
TTITLE8=Kentucky Rain
TTITLE9=Good Time Charlie's Got The Blues
TTITLE10=It Ain't No Big Thing (But It's Growing)
TTITLE11=Are You Sincere
TTITLE12=Release Me
TTITLE13=Funny How Time Slips Away
TTITLE14=I'm So Lonesome I Could Cry
TTITLE15=There's A Honky Tonk Angel
TTITLE16=If I'm A Fool (For Loving You)
TTITLE17=Pieces Of My Life
TTITLE18=Blue Eyes Crying In The Rain
TTITLE19=I Can't Stop Loving You
EXTD=
EXTT0=
EXTT1=
EXTT2=
EXTT3=
EXTT4=
EXTT5=
EXTT6=
EXTT7=
EXTT8=
EXTT9=
EXTT10=
EXTT11=
EXTT12=
EXTT13=
EXTT14=
EXTT15=
EXTT16=
EXTT17=
EXTT18=
EXTT19=
PLAYORDER=
